<svg id="Layer_1" data-name="Layer 1" xmlns="http://www.w3.org/2000/svg" viewBox="0 0 1920 1193"><defs><style>.cls-1{fill:#fff;}.cls-2{fill:none;stroke:#fff;stroke-miterlimit:10;stroke-width:0.25px;}</style></defs><rect x="0.5" y="0.5" width="1919" height="1079"/><path d="M1919,1V1079H1V1H1919m1-1H0V1080H1920V0Z"/><path d="M1319.32,974.09a2.2,2.2,0,0,1-1.07-.28l-73.19-42.24a2.14,2.14,0,0,1-1.06-1.84V845.26a2.15,2.15,0,0,1,1.06-1.84l73.19-42.23a2.1,2.1,0,0,1,2.13,0l73.19,42.24a2.12,2.12,0,0,1,1.06,1.83v84.47a2.14,2.14,0,0,1-1.06,1.84l-73.19,42.24A2.17,2.17,0,0,1,1319.32,974.09Z"/><path class="cls-1" d="M1319.32,819.05l59.31,34.23v68.44L1319.32,956,1260,921.72V853.28l59.32-34.23m0-34.15a18.08,18.08,0,0,0-9.06,2.43l-73.2,42.24a18.13,18.13,0,0,0-9.06,15.69v84.47a18.15,18.15,0,0,0,9.06,15.7l73.2,42.23a18.09,18.09,0,0,0,18.11,0l73.2-42.23a18.13,18.13,0,0,0,9.06-15.7V845.26a18.1,18.1,0,0,0-9.06-15.69l-73.2-42.24a18.07,18.07,0,0,0-9-2.43Z"/><rect x="1380.45" y="869.5" width="65.05" height="37"/><path d="M1430,885v6h-34v-6h34m31-31h-96v68h96V854Z"/><polygon class="cls-1" points="1394.9 931.47 1394.9 931.31 1395.04 931.23 1395.18 931.31 1395.18 931.47 1395.04 931.55 1394.9 931.47"/><path class="cls-1" d="M1395,913.81a3.15,3.15,0,0,0-1.55.41L1381,921.46a3.11,3.11,0,0,0-1.55,2.69v14.48a3.08,3.08,0,0,0,1.55,2.68l12.54,7.24a3.07,3.07,0,0,0,3.1,0l12.54-7.24a3.08,3.08,0,0,0,1.55-2.68V924.15a3.11,3.11,0,0,0-1.55-2.69l-12.54-7.24a3.18,3.18,0,0,0-1.55-.41Z"/><polygon class="cls-1" points="1394.12 844.92 1394.12 843.86 1395.04 843.33 1395.95 843.86 1395.95 844.92 1395.04 845.45 1394.12 844.92"/><path class="cls-1" d="M1395,825.94a3.26,3.26,0,0,0-1.63.43l-13.16,7.6a3.25,3.25,0,0,0-1.63,2.82V852a3.27,3.27,0,0,0,1.63,2.83l13.16,7.59a3.24,3.24,0,0,0,3.26,0l13.15-7.59a3.27,3.27,0,0,0,1.63-2.83V836.79a3.25,3.25,0,0,0-1.63-2.82l-13.15-7.6a3.29,3.29,0,0,0-1.63-.43Z"/><rect class="cls-1" x="1327.5" y="515" width="34.5" height="132" rx="15.92"/><path class="cls-1" d="M1346.08,515h-2.66a15.92,15.92,0,0,0-15.92,15.92V631.08A15.92,15.92,0,0,0,1343.42,647h2.66A15.92,15.92,0,0,0,1362,631.08V530.92A15.92,15.92,0,0,0,1346.08,515Z"/><polygon class="cls-1" points="1342.18 461.75 1342.18 458.44 1345.04 456.79 1347.91 458.44 1347.91 461.75 1345.04 463.41 1342.18 461.75"/><path class="cls-1" d="M1345,439.46a3.67,3.67,0,0,0-1.82.48l-14.72,8.5a3.64,3.64,0,0,0-1.82,3.16v17a3.63,3.63,0,0,0,1.82,3.15l14.72,8.5a3.58,3.58,0,0,0,1.82.49,3.64,3.64,0,0,0,1.83-.49l14.72-8.5a3.65,3.65,0,0,0,1.82-3.15v-17a3.67,3.67,0,0,0-1.82-3.16l-14.72-8.5a3.73,3.73,0,0,0-1.83-.48Z"/><polygon class="cls-1" points="1343.14 530.36 1343.14 528.39 1344.85 527.4 1346.56 528.39 1346.56 530.36 1344.85 531.35 1343.14 530.36"/><path class="cls-1" d="M1344.85,510a3.38,3.38,0,0,0-1.71.46l-13.79,8a3.41,3.41,0,0,0-1.71,3v15.93a3.41,3.41,0,0,0,1.71,3l13.79,8a3.41,3.41,0,0,0,3.42,0l13.79-8a3.41,3.41,0,0,0,1.71-3V521.41a3.41,3.41,0,0,0-1.71-3l-13.79-8a3.38,3.38,0,0,0-1.71-.46Z"/><polygon class="cls-1" points="1343.14 631.36 1343.14 629.39 1344.85 628.4 1346.56 629.39 1346.56 631.36 1344.85 632.35 1343.14 631.36"/><path class="cls-1" d="M1344.85,611a3.38,3.38,0,0,0-1.71.46l-13.79,8a3.41,3.41,0,0,0-1.71,3v15.93a3.41,3.41,0,0,0,1.71,3l13.79,8a3.41,3.41,0,0,0,3.42,0l13.79-8a3.41,3.41,0,0,0,1.71-3V622.41a3.41,3.41,0,0,0-1.71-3l-13.79-8a3.38,3.38,0,0,0-1.71-.46Z"/><rect class="cls-1" x="1388" y="498" width="96" height="28" rx="13.57"/><path class="cls-1" d="M1470.43,498h-68.86A13.56,13.56,0,0,0,1388,511.57v.86A13.56,13.56,0,0,0,1401.57,526h68.86A13.56,13.56,0,0,0,1484,512.43v-.86A13.56,13.56,0,0,0,1470.43,498Z"/><polygon class="cls-1" points="1399.53 630.96 1399.53 627.65 1402.4 626 1405.26 627.65 1405.26 630.96 1402.4 632.62 1399.53 630.96"/><path class="cls-1" d="M1402.39,608.66a3.63,3.63,0,0,0-1.82.49l-14.72,8.5a3.63,3.63,0,0,0-1.82,3.16v17a3.63,3.63,0,0,0,1.82,3.16l14.72,8.5a3.64,3.64,0,0,0,3.65,0l14.72-8.5a3.63,3.63,0,0,0,1.82-3.16v-17a3.63,3.63,0,0,0-1.82-3.16l-14.72-8.5a3.64,3.64,0,0,0-1.83-.49Z"/><path class="cls-1" d="M1484.62,504.48l-9.72-5.61a2.41,2.41,0,0,0-2.41,0l-9.72,5.61a2.42,2.42,0,0,0-1.2,2.09v11.22a2.42,2.42,0,0,0,1.2,2.09l9.72,5.61a2.41,2.41,0,0,0,2.41,0l9.72-5.61a2.4,2.4,0,0,0,1.2-2.09V506.57A2.4,2.4,0,0,0,1484.62,504.48Z"/><path class="cls-1" d="M1473.7,498.55a2.49,2.49,0,0,0-1.21.32l-9.72,5.61a2.42,2.42,0,0,0-1.2,2.09v11.22a2.42,2.42,0,0,0,1.2,2.09l9.72,5.61a2.49,2.49,0,0,0,1.21.32,2.45,2.45,0,0,0,1.2-.32l9.72-5.61a2.4,2.4,0,0,0,1.2-2.09V506.57a2.4,2.4,0,0,0-1.2-2.09l-9.72-5.61a2.45,2.45,0,0,0-1.2-.32Z"/><path class="cls-1" d="M1402.5,623.5a3,3,0,0,1-3-3v-147a3,3,0,0,1,6,0v147A3,3,0,0,1,1402.5,623.5Z"/><path class="cls-1" d="M1402.5,455a18.5,18.5,0,0,0-18.5,18.5v147a18.5,18.5,0,0,0,37,0v-147a18.5,18.5,0,0,0-18.5-18.5Z"/><polygon class="cls-1" points="1399.53 464.96 1399.53 461.65 1402.4 460 1405.26 461.65 1405.26 464.96 1402.4 466.62 1399.53 464.96"/><path class="cls-1" d="M1402.39,442.66a3.63,3.63,0,0,0-1.82.49l-14.72,8.5a3.63,3.63,0,0,0-1.82,3.16v17a3.63,3.63,0,0,0,1.82,3.16l14.72,8.5a3.64,3.64,0,0,0,3.65,0l14.72-8.5a3.63,3.63,0,0,0,1.82-3.16v-17a3.63,3.63,0,0,0-1.82-3.16l-14.72-8.5a3.64,3.64,0,0,0-1.83-.49Z"/><path d="M1597.87,573.81a2.33,2.33,0,0,1-1.19-.32l-73.15-42.23a2.37,2.37,0,0,1-1.19-2V444.73a2.37,2.37,0,0,1,1.18-2.05l73.16-42.24a2.41,2.41,0,0,1,1.19-.31,2.35,2.35,0,0,1,1.18.31l73.16,42.24a2.37,2.37,0,0,1,1.18,2.05v84.48a2.38,2.38,0,0,1-1.18,2l-73.16,42.23A2.28,2.28,0,0,1,1597.87,573.81Z"/><path class="cls-1" d="M1597.87,418l59.77,34.51v69L1597.87,556l-59.78-34.51v-69L1597.87,418m0-33.57a18.07,18.07,0,0,0-9.06,2.42L1515.65,429a18.12,18.12,0,0,0-9.06,15.69v84.48a18.12,18.12,0,0,0,9.06,15.69l73.16,42.23a18.1,18.1,0,0,0,18.12,0l73.15-42.23a18.12,18.12,0,0,0,9.06-15.69V444.73a18.12,18.12,0,0,0-9.06-15.69l-73.15-42.24a18.13,18.13,0,0,0-9.06-2.42Z"/><rect x="1512.75" y="363.75" width="265.5" height="92.5"/><path d="M1762.5,379.5v61h-234v-61h234M1794,348H1497V472h297V348Z"/><rect class="cls-1" x="1659.55" y="519.91" width="28.6" height="102.09" rx="13.49"/><path class="cls-1" d="M1674.66,519.91H1673a13.49,13.49,0,0,0-13.49,13.49v75.11A13.49,13.49,0,0,0,1673,622h1.62a13.49,13.49,0,0,0,13.49-13.49V533.4a13.49,13.49,0,0,0-13.49-13.49Z"/><path class="cls-1" d="M1536.43,452.48,1523.52,445a3.13,3.13,0,0,0-3.12,0l-12.68,7.16a3.18,3.18,0,0,0-1.6,2.77l.14,14.56a3.16,3.16,0,0,0,1.57,2.7l12.91,7.45a3.13,3.13,0,0,0,3.12,0l12.68-7.17a3.14,3.14,0,0,0,1.6-2.77l-.14-14.56A3.12,3.12,0,0,0,1536.43,452.48Z"/><path class="cls-1" d="M1522,444.6a3.15,3.15,0,0,0-1.55.41l-12.68,7.16a3.18,3.18,0,0,0-1.6,2.77l.14,14.56a3.16,3.16,0,0,0,1.57,2.7l12.91,7.45a3.11,3.11,0,0,0,3.12,0l12.68-7.17a3.14,3.14,0,0,0,1.6-2.77l-.14-14.56a3.12,3.12,0,0,0-1.57-2.69L1523.52,445a3.16,3.16,0,0,0-1.57-.42Z"/><polygon class="cls-1" points="1671.79 464.82 1671.79 463.38 1673.04 462.65 1674.29 463.38 1674.29 464.82 1673.04 465.54 1671.79 464.82"/><path class="cls-1" d="M1673,445.27a3.31,3.31,0,0,0-1.66.45L1658,453.47a3.32,3.32,0,0,0-1.67,2.88v15.5a3.32,3.32,0,0,0,1.67,2.88l13.42,7.75a3.31,3.31,0,0,0,3.33,0l13.42-7.75a3.31,3.31,0,0,0,1.66-2.88v-15.5a3.31,3.31,0,0,0-1.66-2.88l-13.42-7.75a3.32,3.32,0,0,0-1.67-.45Z"/><rect class="cls-1" x="1579.93" y="617.98" width="114.65" height="28.6" rx="14.3" transform="translate(-86.28 963.67) rotate(-32)"/><path class="cls-1" d="M1673.74,595.18a14.27,14.27,0,0,0-7.57,2.17l-73,45.61a14.3,14.3,0,0,0,15.16,24.25l73-45.61a14.3,14.3,0,0,0-7.59-26.42Z"/><path class="cls-1" d="M1614.26,645.39l-12-6.92a2.91,2.91,0,0,0-2.9,0l-11.77,6.65a2.93,2.93,0,0,0-1.48,2.57l.12,13.52a2.92,2.92,0,0,0,1.46,2.5l12,6.92a2.91,2.91,0,0,0,2.9,0l11.77-6.65a2.94,2.94,0,0,0,1.48-2.58l-.12-13.51A2.94,2.94,0,0,0,1614.26,645.39Z"/><path class="cls-1" d="M1600.81,638.08a3,3,0,0,0-1.44.38l-11.77,6.65a2.93,2.93,0,0,0-1.48,2.57l.12,13.52a2.92,2.92,0,0,0,1.46,2.5l12,6.92a2.84,2.84,0,0,0,1.46.4,3,3,0,0,0,1.44-.38l11.77-6.65a2.94,2.94,0,0,0,1.48-2.58l-.12-13.51a2.94,2.94,0,0,0-1.46-2.51l-12-6.92a2.9,2.9,0,0,0-1.46-.39Z"/><path d="M453.39,639.59a2.62,2.62,0,0,1-1.31-.35L378.92,597a2.63,2.63,0,0,1-1.31-2.27V510.26a2.65,2.65,0,0,1,1.31-2.27l73.16-42.24a2.63,2.63,0,0,1,2.62,0L527.86,508a2.64,2.64,0,0,1,1.3,2.27v84.47a2.62,2.62,0,0,1-1.3,2.27L454.7,639.24A2.62,2.62,0,0,1,453.39,639.59Z"/><path class="cls-1" d="M453.39,482.9l60.27,34.8v69.6l-60.27,34.8-60.28-34.8V517.7l60.28-34.8m0-33a18.08,18.08,0,0,0-9.06,2.43l-73.16,42.24a18.13,18.13,0,0,0-9.06,15.69v84.47a18.11,18.11,0,0,0,9.06,15.69l73.16,42.24a18.1,18.1,0,0,0,18.12,0l73.16-42.24a18.1,18.1,0,0,0,9-15.69V510.26a18.12,18.12,0,0,0-9-15.69l-73.16-42.24a18.08,18.08,0,0,0-9.06-2.43Z"/><path d="M648.83,639.59a2.62,2.62,0,0,1-1.31-.35L574.36,597a2.61,2.61,0,0,1-1.31-2.27V510.26a2.63,2.63,0,0,1,1.31-2.27l73.16-42.24a2.63,2.63,0,0,1,2.62,0L723.29,508a2.63,2.63,0,0,1,1.31,2.27v84.47a2.61,2.61,0,0,1-1.31,2.27l-73.15,42.24A2.62,2.62,0,0,1,648.83,639.59Z"/><path class="cls-1" d="M648.83,482.9l60.27,34.8v69.6l-60.27,34.8-60.28-34.8V517.7l60.28-34.8m0-33a18.08,18.08,0,0,0-9.06,2.43l-73.16,42.24a18.13,18.13,0,0,0-9.06,15.69v84.47a18.11,18.11,0,0,0,9.06,15.69l73.16,42.24a18.1,18.1,0,0,0,18.12,0L731,610.42a18.09,18.09,0,0,0,9.06-15.69V510.26A18.1,18.1,0,0,0,731,494.57l-73.15-42.24a18.11,18.11,0,0,0-9.06-2.43Z"/><path class="cls-1" d="M573.5,624.5"/><path class="cls-1" d="M577.35,548h-7.7A11.66,11.66,0,0,0,558,559.65v68.7A11.66,11.66,0,0,0,569.65,640h7.7A11.66,11.66,0,0,0,589,628.35v-68.7A11.66,11.66,0,0,0,577.35,548Z"/><polygon class="cls-1" points="573.63 637.48 573.63 637.32 573.77 637.24 573.91 637.32 573.91 637.48 573.77 637.56 573.63 637.48"/><path class="cls-1" d="M573.77,619.82a3.06,3.06,0,0,0-1.55.42l-12.54,7.23a3.11,3.11,0,0,0-1.55,2.69v14.48a3.11,3.11,0,0,0,1.55,2.69l12.54,7.24a3.13,3.13,0,0,0,3.1,0l12.54-7.24a3.11,3.11,0,0,0,1.55-2.69V630.16a3.11,3.11,0,0,0-1.55-2.69l-12.54-7.23a3.06,3.06,0,0,0-1.55-.42Z"/><path d="M844.63,638.59a2.64,2.64,0,0,1-1.31-.35L770.17,596a2.61,2.61,0,0,1-1.31-2.27V509.26a2.63,2.63,0,0,1,1.31-2.27l73.16-42.24a2.59,2.59,0,0,1,1.3-.35,2.62,2.62,0,0,1,1.31.35L919.1,507a2.63,2.63,0,0,1,1.31,2.27v84.47A2.61,2.61,0,0,1,919.1,596l-73.16,42.24A2.62,2.62,0,0,1,844.63,638.59Z"/><path class="cls-1" d="M844.63,481.9l60.28,34.8v69.6l-60.28,34.8-60.27-34.8V516.7l60.27-34.8m0-33a18.07,18.07,0,0,0-9,2.43l-73.16,42.24a18.1,18.1,0,0,0-9.06,15.69v84.47a18.09,18.09,0,0,0,9.06,15.69l73.16,42.24a18.09,18.09,0,0,0,18.11,0l73.16-42.24a18.09,18.09,0,0,0,9.06-15.69V509.26a18.1,18.1,0,0,0-9.06-15.69l-73.16-42.24a18.08,18.08,0,0,0-9.06-2.43Z"/><path class="cls-1" d="M920.5,631.5"/><path class="cls-1" d="M923,544h-4.9a13,13,0,0,0-13,13V634a13,13,0,0,0,13,13H923a13,13,0,0,0,13-13v-76.9a13,13,0,0,0-13-13Z"/><polygon class="cls-1" points="920.19 637.28 920.19 637.12 920.33 637.03 920.47 637.12 920.47 637.28 920.33 637.36 920.19 637.28"/><path class="cls-1" d="M920.33,619.62a3.18,3.18,0,0,0-1.55.41l-12.54,7.24a3.11,3.11,0,0,0-1.55,2.69v14.47a3.1,3.1,0,0,0,1.55,2.69l12.54,7.24a3.07,3.07,0,0,0,3.1,0l12.54-7.24a3.1,3.1,0,0,0,1.55-2.69V630a3.11,3.11,0,0,0-1.55-2.69L921.88,620a3.15,3.15,0,0,0-1.55-.41Z"/><path d="M1040.45,638.73a2.62,2.62,0,0,1-1.31-.35L966,596.14a2.61,2.61,0,0,1-1.31-2.27V509.4a2.63,2.63,0,0,1,1.31-2.27l73.16-42.23a2.54,2.54,0,0,1,1.31-.36,2.59,2.59,0,0,1,1.3.35l73.16,42.24a2.63,2.63,0,0,1,1.31,2.27v84.47a2.61,2.61,0,0,1-1.31,2.27l-73.16,42.24A2.59,2.59,0,0,1,1040.45,638.73Z"/><path class="cls-1" d="M1040.45,482l60.27,34.8v69.6l-60.27,34.8-60.28-34.8v-69.6l60.28-34.8m0-33a18.08,18.08,0,0,0-9.06,2.43l-73.16,42.24a18.12,18.12,0,0,0-9.06,15.69v84.47a18.12,18.12,0,0,0,9.06,15.7l73.16,42.23a18.1,18.1,0,0,0,18.12,0l73.15-42.23a18.12,18.12,0,0,0,9.06-15.7V509.4a18.12,18.12,0,0,0-9.06-15.69l-73.15-42.24a18.14,18.14,0,0,0-9.06-2.43Z"/><rect class="cls-1" x="1081.75" y="596.06" width="31" height="58.85" rx="3.23" transform="translate(6.94 1262.99) rotate(-60)"/><path class="cls-1" d="M1080.7,598.53a3.23,3.23,0,0,0-2.8,1.61l-12.27,21.26a3.23,3.23,0,0,0,1.18,4.41L1112.19,652a3.13,3.13,0,0,0,1.61.44,3.23,3.23,0,0,0,2.8-1.62l12.27-21.25a3.23,3.23,0,0,0-1.18-4.41L1082.31,599a3.24,3.24,0,0,0-1.61-.43Z"/><polygon class="cls-1" points="1115.62 635.93 1115.62 635.77 1115.76 635.69 1115.9 635.77 1115.9 635.93 1115.76 636.02 1115.62 635.93"/><path class="cls-1" d="M1115.76,618.26a3,3,0,0,0-1.52.41l-12.6,7.27a3.06,3.06,0,0,0-1.52,2.64v14.55a3,3,0,0,0,1.52,2.63l12.6,7.27a3,3,0,0,0,3,0l12.6-7.27a3,3,0,0,0,1.52-2.63V628.58a3.06,3.06,0,0,0-1.52-2.64l-12.6-7.27a3.07,3.07,0,0,0-1.52-.41Z"/><line class="cls-2" x1="198.5" y1="654.5" x2="1309.5" y2="654.5"/><line class="cls-2" x1="198.5" y1="448.5" x2="1309.5" y2="448.5"/><line class="cls-2" x1="1131" y1="1193" x2="1131" y2="82"/><path class="cls-1" d="M356.31,193.21,416.58,228v69.6l-60.27,34.8L296,297.61V228l60.28-34.8m0-33a18.08,18.08,0,0,0-9.06,2.43l-73.16,42.24A18.13,18.13,0,0,0,265,220.57V305a18.11,18.11,0,0,0,9.06,15.69L347.25,363a18.1,18.1,0,0,0,18.12,0l73.15-42.24A18.09,18.09,0,0,0,447.58,305V220.57a18.1,18.1,0,0,0-9.06-15.69l-73.15-42.24a18.08,18.08,0,0,0-9.06-2.43Z"/><path class="cls-1" d="M551.75,193.21,612,228v69.6l-60.27,34.8-60.28-34.8V228l60.28-34.8m0-33a18.08,18.08,0,0,0-9.06,2.43l-73.16,42.24a18.13,18.13,0,0,0-9.06,15.69V305a18.11,18.11,0,0,0,9.06,15.69L542.69,363a18.1,18.1,0,0,0,18.12,0L634,320.73A18.09,18.09,0,0,0,643,305V220.57A18.1,18.1,0,0,0,634,204.88l-73.15-42.24a18.11,18.11,0,0,0-9.06-2.43Z"/><path class="cls-1" d="M476.42,334.81"/><path class="cls-1" d="M480.27,258.31h-7.7A11.66,11.66,0,0,0,460.92,270v68.7a11.66,11.66,0,0,0,11.65,11.65h7.7a11.66,11.66,0,0,0,11.65-11.65V270a11.66,11.66,0,0,0-11.65-11.65Z"/><polygon class="cls-1" points="476.55 347.79 476.55 347.63 476.69 347.55 476.83 347.63 476.83 347.79 476.69 347.87 476.55 347.79"/><path class="cls-1" d="M476.69,330.13a3.06,3.06,0,0,0-1.55.42l-12.54,7.23a3.11,3.11,0,0,0-1.55,2.69V355a3.11,3.11,0,0,0,1.55,2.69l12.54,7.23a3.07,3.07,0,0,0,3.1,0l12.54-7.23a3.11,3.11,0,0,0,1.55-2.69V340.47a3.11,3.11,0,0,0-1.55-2.69l-12.54-7.23a3.06,3.06,0,0,0-1.55-.42Z"/><path class="cls-1" d="M747.55,192.21,807.83,227v69.6l-60.28,34.8-60.27-34.8V227l60.27-34.8m0-33a18.14,18.14,0,0,0-9.06,2.43l-73.15,42.24a18.1,18.1,0,0,0-9.06,15.69V304a18.09,18.09,0,0,0,9.06,15.69L738.49,362a18.1,18.1,0,0,0,18.12,0l73.16-42.24A18.09,18.09,0,0,0,838.83,304V219.57a18.1,18.1,0,0,0-9.06-15.69l-73.16-42.24a18.08,18.08,0,0,0-9.06-2.43Z"/><path class="cls-1" d="M823.42,341.81"/><path class="cls-1" d="M825.87,254.31H821a13,13,0,0,0-13.05,13.05v76.9A13,13,0,0,0,821,357.31h4.9a13,13,0,0,0,13-13.05v-76.9a13,13,0,0,0-13-13.05Z"/><polygon class="cls-1" points="823.11 347.59 823.11 347.43 823.25 347.34 823.39 347.43 823.39 347.59 823.25 347.67 823.11 347.59"/><path class="cls-1" d="M823.25,329.93a3.15,3.15,0,0,0-1.55.41l-12.54,7.24a3.11,3.11,0,0,0-1.55,2.69v14.47a3.1,3.1,0,0,0,1.55,2.69l12.54,7.24a3.07,3.07,0,0,0,3.1,0l12.54-7.24a3.1,3.1,0,0,0,1.55-2.69V340.27a3.11,3.11,0,0,0-1.55-2.69l-12.54-7.24a3.15,3.15,0,0,0-1.55-.41Z"/><path class="cls-1" d="M943,194.11l59.45,34.32v68.64L943,331.4,883.5,297.07V228.43L943,194.11m0-33a18,18,0,0,0-9,2.4l-72.49,41.86a18,18,0,0,0-9,15.55v83.71a18,18,0,0,0,9,15.55L934,362a18,18,0,0,0,18,0l72.49-41.85a18,18,0,0,0,9-15.55V220.9a18,18,0,0,0-9-15.55l-72.49-41.86a18,18,0,0,0-9-2.4Z"/><rect class="cls-1" x="936.92" y="337.31" width="86" height="26.61" rx="5.47"/><path class="cls-1" d="M1017.45,337.31H942.39a5.47,5.47,0,0,0-5.47,5.47v15.67a5.47,5.47,0,0,0,5.47,5.47h75.06a5.47,5.47,0,0,0,5.47-5.47V342.78a5.47,5.47,0,0,0-5.47-5.47Z"/><path class="cls-1" d="M1011.74,364.25h11.31a2.52,2.52,0,0,0,2.22-1.33l5.83-11a2.53,2.53,0,0,0,0-2.36l-5.83-11a2.52,2.52,0,0,0-2.22-1.33h-11.31a2.52,2.52,0,0,0-2.22,1.33l-5.83,11a2.53,2.53,0,0,0,0,2.36l5.83,11A2.52,2.52,0,0,0,1011.74,364.25Z"/><path class="cls-1" d="M1023.05,337.31h-11.31a2.52,2.52,0,0,0-2.22,1.33l-5.83,11a2.53,2.53,0,0,0,0,2.36l5.83,11a2.52,2.52,0,0,0,2.22,1.33h11.31a2.52,2.52,0,0,0,2.22-1.33l5.83-11a2.53,2.53,0,0,0,0-2.36l-5.83-11a2.52,2.52,0,0,0-2.22-1.33Z"/></svg>